PathFileType	4	(X/Y/Z)	C:\Users\WrightLab\Desktop\Jo\P4V129.trc
DataRate	CameraRate	NumFrames	NumMarkers	Units	OrigDataRate	OrigDataStartFrame	OrigNumFrames
100.00	100.00	       7	19	mm	100.00	286	       456
Frame#	Time	Headset_Front			Headset_Back			Headset_Left			Headset_Right			Left_Shoulder			Right_Shoulder			Sternum			C7			Left Elbow			Right Elbow			Left Wrist			Right Wrist			Left ASIS			Right ASIS			S2			Left Knee			Right Knee			Left Ankle			Right Ankle			
		X1	Y1	Z1	X2	Y2	Z2	X3	Y3	Z3	X4	Y4	Z4	X5	Y5	Z5	X6	Y6	Z6	X7	Y7	Z7	X8	Y8	Z8	X9	Y9	Z9	X10	Y10	Z10	X11	Y11	Z11	X12	Y12	Z12	X13	Y13	Z13	X14	Y14	Z14	X15	Y15	Z15	X16	Y16	Z16	X17	Y17	Z17	X18	Y18	Z18	X19	Y19	Z19	

286	2.850							-506.25037	1634.52686	-517.57422	-541.30170	1047.38318	-190.80788	-695.67792	1518.32031	-277.09955	-401.56317	1533.57324	-284.49417	-558.12225	1462.65247	-388.70215	-540.24969	1559.97913	-226.14240	-825.42737	1168.63855	-225.37743	-195.39932	1214.98621	-716.59778	-854.37708	883.59509	-354.76767	-159.46365	1305.99060	-427.07626	-689.18182	1039.39551	-368.06857	-356.13116	1014.53815	-383.02545				-732.73322	598.12494	-518.05048	-427.23245	529.13837	-333.12659	-707.99475	162.16574	-253.50180	-524.08411	53.85740	-187.70436	
287	2.860							-506.55820	1634.23950	-526.49707	-545.35468	1047.11377	-197.28850	-696.99756	1517.22192	-287.37140	-401.90231	1532.44885	-293.60956	-558.52820	1461.69470	-398.17792	-542.05377	1557.96558	-235.30037	-827.26233	1167.91919	-236.07553	-201.78778	1201.66602	-720.17999	-855.68304	882.65393	-363.28513	-162.89352	1299.39868	-433.68018	-689.30817	1039.13831	-379.56616	-356.59622	1013.77954	-390.14539				-729.76447	597.43201	-530.13147	-427.73276	529.01514	-337.42920	-713.88971	146.61346	-290.04752	-524.44067	54.06464	-187.72133	
288	2.870							-506.95770	1634.21106	-534.90448	-546.91510	1047.43079	-205.97313	-698.13104	1516.50085	-298.10947	-402.65622	1531.33240	-302.63055	-558.93390	1460.73767	-407.46005	-542.86731	1558.27429	-244.32077	-829.62970	1167.77893	-246.20039	-207.47751	1188.10962	-723.41827	-857.19391	881.09717	-372.24142	-166.53973	1292.66418	-439.76181	-689.46094	1038.20593	-390.91434	-356.69388	1012.66815	-396.23621				-727.01074	596.57666	-541.78906	-428.62750	527.98407	-340.37549	-719.50696	133.14490	-325.67892	-524.45544	54.26253	-187.74620	
289	2.880							-507.34497	1634.82288	-543.81177	-549.08936	1046.40271	-216.39285	-699.37146	1514.91748	-308.43787	-403.45578	1530.30566	-311.87668	-559.30920	1459.70605	-416.98401	-544.36743	1557.20947	-253.37434	-831.18146	1167.34802	-256.61588	-213.80534	1174.96606	-726.40662	-858.75916	879.45752	-380.39944	-170.08940	1285.76440	-445.39661	-689.51801	1037.42407	-402.11398	-356.71078	1011.80798	-404.69681				-724.25690	595.05908	-552.83057	-429.38336	527.44977	-344.95779	-723.78131	122.64233	-354.26437	-524.55048	54.39717	-188.03552	
290	2.890							-507.80173	1634.72217	-552.72894	-552.18719	1044.71533	-229.70621	-700.69391	1514.32959	-319.15265	-404.80658	1528.93066	-321.18900	-559.41846	1458.30627	-426.75671	-546.11761	1555.75928	-262.34070	-832.80872	1166.40417	-266.15475	-220.02785	1161.83179	-730.03851	-860.31415	878.56689	-389.68134	-174.25417	1278.71460	-452.54343	-689.72876	1036.15503	-413.12772	-356.28131	1010.90869	-411.55429				-722.05017	592.69385	-562.26715	-429.46872	527.23468	-349.17352	-727.83563	109.34062	-391.35825	-524.56732	54.53102	-188.19493	
291	2.900							-508.05380	1634.09192	-561.21216	-554.35699	1044.17761	-236.93715	-701.78772	1513.51477	-330.15485	-405.31158	1527.35583	-329.98651	-560.13135	1457.37671	-436.49545	-546.79388	1554.87646	-271.67361	-834.97656	1165.82825	-276.59747	-225.83342	1148.89526	-732.76471	-862.07660	877.05353	-398.02673	-178.59273	1271.98718	-459.01987	-689.83490	1034.83484	-424.71616	-356.73236	1009.84436	-419.70740				-720.07190	590.03461	-571.33911	-430.52164	525.93091	-351.97980	-729.91144	98.56851	-425.34717	-526.16833	54.29006	-187.98550	
292	2.910							-508.14865	1634.09912	-570.39435	-555.58685	1042.91748	-246.87233	-702.71362	1512.14087	-340.95554	-406.53113	1525.68701	-338.48456	-560.13025	1455.60510	-445.89349	-548.71442	1552.94556	-280.91653	-837.32037	1165.71570	-286.96420	-231.04524	1135.26563	-735.82306	-863.87067	875.13824	-408.72229	-182.72859	1265.04407	-464.88409	-689.84625	1033.44348	-436.17569	-357.01730	1008.54053	-427.51920				-718.52802	586.71820	-579.64392	-430.80692	525.41144	-356.35010	-732.85327	86.98112	-462.92285	-524.92218	55.01450	-187.88292	
